# MagicaVoxel @ Ephtracy

# group
o 

# material
mtllib crystal_sm2.vox.mtl
usemtl palette

# normals
vn -1 0 0
vn 1 0 0
vn 0 0 1
vn 0 0 -1
vn 0 -1 0
vn 0 1 0

# texcoords
vt 0.587891 0.5
vt 0.978516 0.5

# verts
v 0.5 -1 0
v 0.5 -1 -0.2
v 0.5 -0.9 0
v 0.5 -0.9 -0.2
v 0.5 -0.7 0
v 0.5 -0.7 -0.1
v 0.5 -0.4 -0.1
v 0.5 -0.4 -0.2
v 0.6 -0.7 0
v 0.6 -0.7 -0.1
v 0.6 -0.6 0
v 0.6 -0.6 -0.1
v 0.6 -0.6 -0.1
v 0.6 -0.6 -0.2
v 0.6 -0.4 -0.1
v 0.6 -0.4 -0.2
v 0.7 -1 0
v 0.7 -1 -0.2
v 0.7 -0.9 0
v 0.7 -0.9 -0.2
v 0.7 -0.6 0
v 0.7 -0.6 -0.2
v 0.5 -1 0
v 0.5 -0.9 0
v 0.5 -0.7 0
v 0.6 -0.7 0
v 0.6 -0.6 0
v 0.7 -1 0
v 0.7 -0.9 0
v 0.7 -0.6 0
v 0.5 -0.7 -0.1
v 0.5 -0.4 -0.1
v 0.6 -0.7 -0.1
v 0.6 -0.6 -0.1
v 0.6 -0.4 -0.1
v 0.5 -1 -0.2
v 0.5 -0.9 -0.2
v 0.5 -0.4 -0.2
v 0.6 -0.6 -0.2
v 0.6 -0.4 -0.2
v 0.7 -1 -0.2
v 0.7 -0.9 -0.2
v 0.7 -0.6 -0.2
v 0.5 -1 0
v 0.7 -1 0
v 0.5 -1 -0.2
v 0.7 -1 -0.2
v 0.5 -0.7 0
v 0.6 -0.7 0
v 0.5 -0.7 -0.1
v 0.6 -0.7 -0.1
v 0.6 -0.6 0
v 0.7 -0.6 0
v 0.6 -0.6 -0.1
v 0.6 -0.6 -0.2
v 0.7 -0.6 -0.2
v 0.5 -0.4 -0.1
v 0.6 -0.4 -0.1
v 0.5 -0.4 -0.2
v 0.6 -0.4 -0.2

# faces
f 3/2/1 2/2/1 1/2/1
f 4/2/1 2/2/1 3/2/1
f 5/1/1 4/1/1 3/1/1
f 6/1/1 4/1/1 5/1/1
f 7/1/1 4/1/1 6/1/1
f 8/1/1 4/1/1 7/1/1
f 11/1/1 10/1/1 9/1/1
f 12/1/1 10/1/1 11/1/1
f 13/1/2 14/1/2 15/1/2
f 15/1/2 14/1/2 16/1/2
f 17/2/2 18/2/2 19/2/2
f 19/2/2 18/2/2 20/2/2
f 19/1/2 20/1/2 21/1/2
f 21/1/2 20/1/2 22/1/2
f 26/1/3 25/1/3 24/1/3
f 28/2/3 24/2/3 23/2/3
f 29/1/3 27/1/3 26/1/3
f 29/2/3 24/2/3 28/2/3
f 29/1/3 26/1/3 24/1/3
f 30/1/3 27/1/3 29/1/3
f 33/1/3 32/1/3 31/1/3
f 34/1/3 32/1/3 33/1/3
f 35/1/3 32/1/3 34/1/3
f 37/1/4 38/1/4 39/1/4
f 39/1/4 38/1/4 40/1/4
f 36/2/4 37/2/4 41/2/4
f 37/1/4 39/1/4 42/1/4
f 41/2/4 37/2/4 42/2/4
f 42/1/4 39/1/4 43/1/4
f 46/2/5 45/2/5 44/2/5
f 47/2/5 45/2/5 46/2/5
f 48/1/6 49/1/6 50/1/6
f 50/1/6 49/1/6 51/1/6
f 52/1/6 53/1/6 54/1/6
f 54/1/6 53/1/6 55/1/6
f 55/1/6 53/1/6 56/1/6
f 57/1/6 58/1/6 59/1/6
f 59/1/6 58/1/6 60/1/6
