# MagicaVoxel @ Ephtracy

# group
o 

# material
mtllib crystal_md.vox.mtl
usemtl palette

# normals
vn -1 0 0
vn 1 0 0
vn 0 0 1
vn 0 0 -1
vn 0 -1 0
vn 0 1 0

# texcoords
vt 0.587891 0.5
vt 0.978516 0.5

# verts
v -0.1 0 0
v -0.1 0 -0.3
v -0.1 0.1 0
v -0.1 0.1 -0.3
v -0.1 0.3 0
v -0.1 0.3 -0.1
v -0.1 0.6 -0.1
v -0.1 0.6 -0.3
v 0 0 0.2
v 0 0 0
v 0 0.1 0
v 0 0.2 0.2
v 0 0.2 0
v 0 0.3 0
v 0 0.3 -0.1
v 0 0.6 0.2
v 0 0.6 0.1
v 0 0.6 -0.1
v 0 0.6 -0.2
v 0 1 0.1
v 0 1 -0.2
v 0.1 1 0.1
v 0.1 1 -0.1
v 0.1 1.3 0.1
v 0.1 1.3 -0.1
v 0.1 0.3 -0.2
v 0.1 0.3 -0.3
v 0.1 0.6 -0.2
v 0.1 0.6 -0.3
v 0.2 0 -0.2
v 0.2 0 -0.3
v 0.2 0.1 -0.2
v 0.2 0.1 -0.3
v 0.2 0.2 -0.2
v 0.2 0.3 -0.2
v 0.2 0.3 -0.3
v 0.3 0.6 0.1
v 0.3 0.6 -0.2
v 0.3 1 -0.1
v 0.3 1 -0.2
v 0.3 1.3 0.1
v 0.3 1.3 -0.1
v 0.4 0 0.2
v 0.4 0 -0.2
v 0.4 0.2 0.2
v 0.4 0.2 -0.2
v 0.4 0.6 0.2
v 0.4 0.6 -0.2
v 0 0 0.2
v 0 0.2 0.2
v 0 0.6 0.2
v 0.4 0 0.2
v 0.4 0.2 0.2
v 0.4 0.6 0.2
v 0 0.6 0.1
v 0 1 0.1
v 0.1 1 0.1
v 0.1 1.3 0.1
v 0.3 0.6 0.1
v 0.3 1.3 0.1
v -0.1 0 0
v -0.1 0.1 0
v -0.1 0.3 0
v 0 0 0
v 0 0.1 0
v 0 0.2 0
v 0 0.3 0
v -0.1 0.3 -0.1
v -0.1 0.6 -0.1
v 0 0.3 -0.1
v 0 0.6 -0.1
v 0.1 1 -0.1
v 0.1 1.3 -0.1
v 0.3 1 -0.1
v 0.3 1.3 -0.1
v 0 0.6 -0.2
v 0 1 -0.2
v 0.1 0.3 -0.2
v 0.1 0.6 -0.2
v 0.2 0 -0.2
v 0.2 0.1 -0.2
v 0.2 0.2 -0.2
v 0.2 0.3 -0.2
v 0.3 0.6 -0.2
v 0.3 1 -0.2
v 0.4 0 -0.2
v 0.4 0.2 -0.2
v 0.4 0.6 -0.2
v -0.1 0 -0.3
v -0.1 0.1 -0.3
v -0.1 0.6 -0.3
v 0.1 0.3 -0.3
v 0.1 0.6 -0.3
v 0.2 0 -0.3
v 0.2 0.1 -0.3
v 0.2 0.3 -0.3
v 0 0 0.2
v 0.4 0 0.2
v -0.1 0 0
v 0 0 0
v 0.2 0 -0.2
v 0.4 0 -0.2
v -0.1 0 -0.3
v 0.2 0 -0.3
v -0.1 0.3 0
v 0 0.3 0
v -0.1 0.3 -0.1
v 0 0.3 -0.1
v 0.1 0.3 -0.2
v 0.2 0.3 -0.2
v 0.1 0.3 -0.3
v 0.2 0.3 -0.3
v 0 0.6 0.2
v 0.4 0.6 0.2
v 0 0.6 0.1
v 0.3 0.6 0.1
v -0.1 0.6 -0.1
v 0 0.6 -0.1
v 0 0.6 -0.2
v 0.1 0.6 -0.2
v 0.3 0.6 -0.2
v 0.4 0.6 -0.2
v -0.1 0.6 -0.3
v 0.1 0.6 -0.3
v 0 1 0.1
v 0.1 1 0.1
v 0.1 1 -0.1
v 0.3 1 -0.1
v 0 1 -0.2
v 0.3 1 -0.2
v 0.1 1.3 0.1
v 0.3 1.3 0.1
v 0.1 1.3 -0.1
v 0.3 1.3 -0.1

# faces
f 3/2/1 2/2/1 1/2/1
f 4/2/1 2/2/1 3/2/1
f 5/1/1 4/1/1 3/1/1
f 6/1/1 4/1/1 5/1/1
f 7/1/1 4/1/1 6/1/1
f 8/1/1 4/1/1 7/1/1
f 11/2/1 10/2/1 9/2/1
f 12/2/1 11/2/1 9/2/1
f 13/2/1 11/2/1 12/2/1
f 14/1/1 13/1/1 12/1/1
f 16/1/1 14/1/1 12/1/1
f 16/1/1 15/1/1 14/1/1
f 17/1/1 15/1/1 16/1/1
f 18/1/1 15/1/1 17/1/1
f 20/1/1 19/1/1 18/1/1
f 20/1/1 18/1/1 17/1/1
f 21/1/1 19/1/1 20/1/1
f 24/1/1 23/1/1 22/1/1
f 25/1/1 23/1/1 24/1/1
f 26/1/2 27/1/2 28/1/2
f 28/1/2 27/1/2 29/1/2
f 30/2/2 31/2/2 32/2/2
f 32/2/2 31/2/2 33/2/2
f 32/1/2 33/1/2 34/1/2
f 34/1/2 33/1/2 35/1/2
f 35/1/2 33/1/2 36/1/2
f 37/1/2 38/1/2 39/1/2
f 39/1/2 38/1/2 40/1/2
f 37/1/2 39/1/2 41/1/2
f 41/1/2 39/1/2 42/1/2
f 43/2/2 44/2/2 45/2/2
f 45/2/2 44/2/2 46/2/2
f 45/1/2 46/1/2 47/1/2
f 47/1/2 46/1/2 48/1/2
f 52/2/3 50/2/3 49/2/3
f 53/1/3 51/1/3 50/1/3
f 53/2/3 50/2/3 52/2/3
f 54/1/3 51/1/3 53/1/3
f 57/1/3 56/1/3 55/1/3
f 59/1/3 57/1/3 55/1/3
f 59/1/3 58/1/3 57/1/3
f 60/1/3 58/1/3 59/1/3
f 64/2/3 62/2/3 61/2/3
f 65/1/3 63/1/3 62/1/3
f 65/2/3 62/2/3 64/2/3
f 66/1/3 63/1/3 65/1/3
f 67/1/3 63/1/3 66/1/3
f 70/1/3 69/1/3 68/1/3
f 71/1/3 69/1/3 70/1/3
f 72/1/4 73/1/4 74/1/4
f 74/1/4 73/1/4 75/1/4
f 76/1/4 77/1/4 79/1/4
f 78/1/4 79/1/4 83/1/4
f 79/1/4 77/1/4 84/1/4
f 82/1/4 83/1/4 84/1/4
f 83/1/4 79/1/4 84/1/4
f 84/1/4 77/1/4 85/1/4
f 81/2/4 82/2/4 86/2/4
f 80/2/4 81/2/4 86/2/4
f 82/1/4 84/1/4 87/1/4
f 86/2/4 82/2/4 87/2/4
f 87/1/4 84/1/4 88/1/4
f 90/1/4 91/1/4 92/1/4
f 92/1/4 91/1/4 93/1/4
f 89/2/4 90/2/4 94/2/4
f 90/1/4 92/1/4 95/1/4
f 94/2/4 90/2/4 95/2/4
f 95/1/4 92/1/4 96/1/4
f 100/2/5 98/2/5 97/2/5
f 101/2/5 98/2/5 100/2/5
f 101/2/5 100/2/5 99/2/5
f 102/2/5 98/2/5 101/2/5
f 103/2/5 101/2/5 99/2/5
f 104/2/5 101/2/5 103/2/5
f 105/1/6 106/1/6 107/1/6
f 107/1/6 106/1/6 108/1/6
f 109/1/6 110/1/6 111/1/6
f 111/1/6 110/1/6 112/1/6
f 113/1/6 114/1/6 115/1/6
f 115/1/6 114/1/6 116/1/6
f 117/1/6 118/1/6 119/1/6
f 116/1/6 114/1/6 121/1/6
f 121/1/6 114/1/6 122/1/6
f 119/1/6 120/1/6 123/1/6
f 117/1/6 119/1/6 123/1/6
f 123/1/6 120/1/6 124/1/6
f 125/1/6 126/1/6 127/1/6
f 125/1/6 127/1/6 129/1/6
f 127/1/6 128/1/6 129/1/6
f 129/1/6 128/1/6 130/1/6
f 131/1/6 132/1/6 133/1/6
f 133/1/6 132/1/6 134/1/6
